<?xml version="1.0" standalone="no"?>
<!DOCTYPE svg PUBLIC "-//W3C//DTD SVG 20010904//EN"
 "http://www.w3.org/TR/2001/REC-SVG-20010904/DTD/svg10.dtd">
<svg version="1.0" xmlns="http://www.w3.org/2000/svg"
 width="139.000000pt" height="119.000000pt" viewBox="0 0 139.000000 119.000000"
 preserveAspectRatio="xMidYMid meet">

<g transform="translate(0.000000,119.000000) scale(0.100000,-0.100000)"
fill="#000000" stroke="none">
<path d="M323 1052 c75 -75 137 -142 137 -147 0 -6 -54 -64 -120 -130 l-120
-120 120 -120 c66 -66 120 -125 120 -130 0 -5 -62 -72 -137 -147 -137 -138
-138 -138 -103 -138 31 0 48 13 161 126 l126 125 119 -124 119 -125 119 125
119 125 127 -127 c115 -115 130 -126 159 -123 31 3 30 4 -109 143 l-140 140
125 125 125 125 -125 125 -125 125 142 142 c142 143 143 143 108 143 -31 0
-48 -13 -161 -126 l-126 -126 -119 126 -119 125 -119 -125 -119 -126 -126 126
c-113 113 -130 126 -161 126 -35 0 -34 0 103 -138z m768 -293 l99 -107 -222
-227 -221 -226 -224 223 c-123 122 -223 227 -223 233 0 5 100 110 222 232
l223 223 123 -123 c68 -67 168 -170 223 -228z"/>
<path d="M450 666 c0 -70 3 -86 15 -86 12 0 15 15 16 68 l1 67 25 -68 c32 -84
50 -85 78 -5 28 80 35 81 35 5 0 -54 3 -67 15 -67 13 0 15 14 13 83 -3 79 -4
82 -27 82 -25 0 -31 -7 -57 -70 l-16 -40 -22 55 c-18 45 -27 56 -49 58 l-27 3
0 -85z"/>
<path d="M680 665 c0 -78 2 -85 20 -85 18 0 20 7 20 85 0 78 -2 85 -20 85 -18
0 -20 -7 -20 -85z"/>
<path d="M750 665 c0 -78 2 -85 20 -85 16 0 20 7 20 35 0 32 2 35 30 35 28 0
30 -3 30 -35 0 -28 4 -35 20 -35 18 0 20 7 20 85 0 78 -2 85 -20 85 -16 0 -20
-7 -20 -35 0 -32 -2 -35 -30 -35 -28 0 -30 3 -30 35 0 28 -4 35 -20 35 -18 0
-20 -7 -20 -85z"/>
<path d="M936 672 c-14 -42 -26 -80 -26 -85 0 -16 29 -6 35 13 5 15 15 20 40
20 24 0 34 -5 38 -20 5 -19 37 -29 37 -12 0 4 -12 42 -27 85 -22 65 -30 77
-49 77 -19 0 -26 -12 -48 -78z m63 -9 c1 -7 -8 -13 -19 -13 -23 0 -23 0 -9 37
10 26 12 27 19 8 5 -11 9 -26 9 -32z"/>
<path d="M0 660 c0 -6 28 -10 65 -10 37 0 65 4 65 10 0 6 -28 10 -65 10 -37 0
-65 -4 -65 -10z"/>
<path d="M1350 660 c0 -5 9 -10 20 -10 11 0 20 5 20 10 0 6 -9 10 -20 10 -11
0 -20 -4 -20 -10z"/>
</g>
</svg>
